# xmcd
#
# Track frame offsets: 
#        150
#        7543
#        19678
#        43775
#        71977
#        113626
#        127287
#        153820
#
# Disc length: 2312 seconds
#
# Revision: 2
# Processed by: cddbd v1.5.2PL0 Copyright (c) Steve Scherf et al.
# Submitted via: ExactAudioCopy v1.1
#
DISCID=5e090608
DTITLE=Cuby and Blizzards - Live In Het Oude Luxor [CD1)
DYEAR=2005
DGENRE=Blues
TTITLE0=Intro -Faker
TTITLE1=Checkin' Upon My Baby
TTITLE2=Five Long Years
TTITLE3=Help Me
TTITLE4=Hobo Blues
TTITLE5=Another Day, Another Road
TTITLE6=Somebody Will Know Someday
TTITLE7=Appleknockers Flophouse
EXTD=
EXTT0=
EXTT1=
EXTT2=
EXTT3=
EXTT4=
EXTT5=
EXTT6=
EXTT7=
PLAYORDER=
